<svg width="319" height="504" viewBox="0 0 319 504" xmlns="http://www.w3.org/2000/svg"><title>Small Island Scene</title><g fill="none" fill-rule="evenodd"><g stroke-linecap="round" stroke-linejoin="round"><g stroke="#A39180"><path d="M80.486 146c1.665 0 8.485-11 8.485-11H72s6.82 11 8.486 11z" stroke-width="2" fill="#C3A68B"/><path d="M78.341 144.143c.876-.552 1.928-1.364 3.19-2.42a132.036 132.036 0 0 0 1.41 2.04c2.59-3.215 6.03-8.763 6.03-8.763H72s3.725 6.007 6.341 9.143z" fill="#A39180" opacity=".598"/><path d="M76.171 142c1.996 0 10.172-8 10.172-8H66s8.176 8 10.171 8z" stroke-width="2" fill="#C3A68B"/><path d="M89.029 147c1.967 0 10.028-13 10.028-13H79s8.061 13 10.029 13z" stroke-width="2" fill="#C3A68B"/><path d="M97.819 136.951a164.633 164.633 0 0 1-2.628 3.956c-1.741.44-3.68.693-5.81.693-2.976 0-5.649-.512-8.002-1.397l.681.008c-1.945.679-4.096 1.06-6.442 1.06a27.59 27.59 0 0 1-2.69-.127c-1.592-1.228-3.4-2.838-4.769-4.102 1.754.71 4.274 1.23 7.46 1.23 2.455 0 4.502-.443 6.112-1.005 1.881.707 4.45 1.333 7.65 1.333 3.672 0 6.513-.823 8.438-1.649z" fill="#A39180" opacity=".598"/></g><path d="M89.5 144.5l1-3m-10 2l1-1m-6-3l-1-1" stroke="#A39180"/><path d="M99.895 134.885a1.98 1.98 0 0 0 .282-.18c.388-.253.586-.416.586-.416h-.171a2.058 2.058 0 0 0-1.657-3.29l-31.87.001A2.064 2.064 0 0 0 65 133.06c0 .836.491 1.548 1.2 1.873.283.227.629.466 1.037.683 1.737.92 4.587 1.655 8.381 1.655 2.456 0 4.503-.442 6.113-1.004 1.881.707 4.45 1.333 7.65 1.333 5.372 0 8.964-1.762 10.514-2.715z" stroke="#84AA58" stroke-width="2" fill="#B8E986"/><g stroke-width="2"><path stroke="#7F7368" fill="#9C8A7B" d="M70.619 121.263h3.81V131h-3.81z"/><path d="M76.509 109.579h3.634L73 94l-7.143 15.579h3.634l-6.015 11.684h19.048l-6.015-11.684z" stroke="#6F7C60" fill="#88947B"/><path stroke="#7F7368" fill="#9C8A7B" d="M82.952 123.632h2.476V131h-2.476z"/><path d="M86.78 114.79h2.363L84.5 103l-4.643 11.79h2.362l-3.91 8.842H90.69l-3.91-8.843z" stroke="#6F7C60" fill="#88947B"/></g><path d="M99.865 128.088l-2.36 1.957.003-3.996m-.81 3.093L94 128" stroke="#84AA58" stroke-width="2"/></g><g transform="translate(67 7)"><g stroke="#A39180" stroke-linecap="round" stroke-linejoin="round"><path d="M67 124c5.297 0 27-35 27-35H40s21.703 35 27 35z" stroke-width="2" fill="#C3A68B"/><path d="M133.437 68c1.616-2.5 2.563-4 2.563-4H52s.698 1.106 1.918 3H5s33.76 37 42 37c3.703 0 12.558-7.47 21.188-15.698C78.073 102.44 89.628 117.5 94 117.5c4.81 0 18.316-18.23 28.727-33.408C125.6 87.961 128.252 91 129.5 91c3.433 0 17.5-23 17.5-23h-13.563z" stroke-width="2" fill="#C3A68B"/><path d="M80.47 109.361a277.26 277.26 0 0 0 1.677-2.374c-4.266-5.171-9.02-11.645-13.47-17.987h-1.224c-6.898 6.532-13.843 12.459-18.095 14.363.613.904 1.24 1.819 1.876 2.735 4.238-2.298 10.275-7.357 17.989-14.71l-2.265-.227c5.128 7.334 9.64 13.452 13.512 18.2zM121 74.119a1.471 1.471 0 0 1-.45.953 78.637 78.637 0 0 1-.787.761c-.626.602-1.33 1.272-2.098 1.994a243.146 243.146 0 0 1-6.667 6.054c-.728.634-1.44 1.245-2.133 1.829C103.267 90.426 99.466 93 97.25 93c-2.216 0-6.017-2.574-11.615-7.29a165.042 165.042 0 0 1-2.133-1.83 243.144 243.144 0 0 1-6.667-6.053 259.098 259.098 0 0 1-2.034-1.933c1.15-.301 2.24-.624 3.27-.965C83.38 79.911 94.018 89.5 97.25 89.5c3.84 0 18.146-13.546 21.53-16.802.681.488 1.422.968 2.22 1.42zM33.15 95.022c-1.102 1.218 7.2-8.867 12.545-16.737.99.082 2 .144 3.031.185a373.693 373.693 0 0 1-4.008 5.887c-.88 1.265-1.74 2.482-2.579 3.645-2.604 3.616-4.867 6.581-6.826 8.866a138.56 138.56 0 0 1-2.162-1.846z" fill="#A39180" opacity=".598"/><path d="M97.25 89.5c4.365 0 22.25-17.5 22.25-17.5H75s17.885 17.5 22.25 17.5zM28 99c5.297 0 27-35 27-35H1s21.703 35 27 35z" stroke-width="2" fill="#C3A68B"/></g><path d="M139.69 79.276a262.964 262.964 0 0 0 3.508-5.27c-2.948 1.71-6.699 3.058-11.198 3.058-7.092 0-12.326-3.352-15.485-6.187-3.77 3.293-9.853 7.041-18.015 7.041-7.032 0-12.568-1.937-16.377-4.568-6.602 3.035-17.236 5.177-30.515 5.177-13.685 0-23.947-3.804-30.402-7.22A15.271 15.271 0 0 1 14.216 73c-3.702 0-6.698-.913-8.89-2.215.986 1.517 2.098 3.21 3.288 4.99 1.714.472 3.598.725 5.601.725 2.764 0 5.328-.662 7.672-1.856l-1.382-.011c8.643 4.573 19.046 7.394 31.103 7.394 12.775 0 23.876-1.975 31.141-5.314l-1.479-.128c4.439 3.065 10.394 4.833 17.23 4.833 7.418 0 13.775-2.846 19.002-7.41l-1.989-.014c4.49 4.03 10.008 6.57 16.487 6.57 2.726 0 5.292-.454 7.69-1.288z" stroke="#A39180" stroke-linecap="round" stroke-linejoin="round" fill="#A39180" opacity=".598"/><path d="M150.765 67A6.237 6.237 0 0 0 152 63.263 6.27 6.27 0 0 0 145.734 57H6.266A6.262 6.262 0 0 0 2.21 68.036 9.6 9.6 0 0 0 3.547 69.5c2.21 1.944 5.838 3.5 10.668 3.5 2.737 0 5.076-.718 6.991-1.693 6.455 3.416 16.717 7.22 30.402 7.22 13.28 0 23.913-2.142 30.515-5.177 3.809 2.631 9.345 4.568 16.377 4.568 8.162 0 14.245-3.748 18.015-7.04 3.159 2.834 8.393 6.186 15.485 6.186 12.29 0 19-10.064 19-10.064h-.235z" stroke="#84AA58" stroke-width="2" stroke-linecap="round" stroke-linejoin="round" fill="#B8E986"/><g stroke-linecap="round" stroke-width="2" stroke-linejoin="round"><path stroke="#7F7368" fill="#9C8A7B" d="M103.238 43.579h-4.381V57h4.381z"/><path d="M96.465 27.474h-4.18L100.5 6l8.214 21.474h-4.179l6.917 16.105H89.548l6.917-16.105z" stroke="#6F7C60" fill="#88947B"/><path stroke="#7F7368" fill="#9C8A7B" d="M127.19 42h-5.905v15h5.905z"/><path d="M118.061 24h-5.632L123.5 0l11.071 24h-5.632l9.323 18h-29.524l9.323-18z" stroke="#6F7C60" fill="#88947B"/><path stroke="#7F7368" fill="#9C8A7B" d="M66.333 43.579H61V57h5.333z"/><path d="M58.088 27.474H53L63 6l10 21.474h-5.088l8.421 16.105H49.667l8.42-16.105z" stroke="#6F7C60" fill="#88947B"/><path stroke="#7F7368" fill="#9C8A7B" d="M90.571 42.526h-5.714V57h5.714z"/><path d="M81.737 25.158h-5.451L87 2l10.714 23.158h-5.45l9.022 17.368H72.714l9.023-17.368z" stroke="#6F7C60" fill="#88947B"/><path stroke="#7F7368" fill="#9C8A7B" d="M78 47h-4v10h4z"/><path d="M71.816 35H68l7.5-16L83 35h-3.816L85.5 47h-20l6.316-12z" stroke="#6F7C60" fill="#88947B"/><path stroke="#7F7368" fill="#9C8A7B" d="M23.238 45.684h-4.381V57h4.381z"/><path d="M16.465 32.105h-4.18L20.5 14l8.214 18.105h-4.179l6.917 13.58H9.548l6.917-13.58z" stroke="#6F7C60" fill="#88947B"/><path stroke="#7F7368" fill="#9C8A7B" d="M113.238 45.684h-4.381V57h4.381z"/><path d="M106.465 32.105h-4.18L110.5 14l8.214 18.105h-4.179l6.917 13.58H99.548l6.917-13.58z" stroke="#6F7C60" fill="#88947B"/><path stroke="#7F7368" fill="#9C8A7B" d="M51.381 47.263h-3.81V57h3.81z"/><path d="M45.491 35.579h-3.634L49 20l7.143 15.579h-3.634l6.015 11.684H39.476l6.015-11.684z" stroke="#6F7C60" fill="#88947B"/></g><path d="M85.078 53.564l-2.565 3.187-2.26-4.526m33.042 3.027l1.891 1.395 1.23-2.173m-108.281.614l2.36 1.957-.003-3.996m.81 3.093L14 55m131.078-1.436l-2.565 3.187-.617-4.851M139.45 54l1.55 2.486" stroke="#84AA58" stroke-width="2" stroke-linecap="round" stroke-linejoin="round"/><path d="M70.5 115.5l3-11m-26-4l7-9m-27 4l-2-2m3-1l-5-9m44.82 35.663l-.82-4.663m23-5l-12-14m33-7l5-6m13 5v-1m-2-1l-1-3m-30 3l-2-2m4 2l1-1m-18 10l-3-3" stroke="#A39180" stroke-linecap="round" stroke-linejoin="round"/><path d="M44.502 422.302c0-5.69-5.809-10.302-12.974-10.302s-12.974 4.613-12.974 10.302c0 5.69 5.809 4.638 12.974 4.638s12.974 1.052 12.974-4.638z" stroke="#ADAFAB" stroke-width="2" stroke-linecap="round" stroke-linejoin="round" fill="#CBD0C6"/><path d="M42.302 427.04c4.586 0 8.303.848 8.303-3.738a8.302 8.302 0 1 0-16.605 0c0 4.586 3.717 3.738 8.302 3.738z" stroke="#ADAFAB" stroke-width="2" stroke-linecap="round" stroke-linejoin="round" fill="#CBD0C6"/><g transform="translate(29 55)" stroke="#6C86A2" stroke-width="2" fill="#A0BAD9" stroke-linecap="round" opacity=".8" stroke-linejoin="round"><rect width="15" height="372" rx="3"/><path d="M3.5 12.67v53.218m8-8.118v11.156m0 17.739v34.97M9.5 5.068v43.586m-3 64.872v97.31m-1-133.011V92.24m6 101.362v81.091m0 23.312v70.954m-8-66.899v51.717m4-16.245v26.381m-4-142.943v41.56m3-8.117v46.636m6-152.801v29.138"/></g><rect stroke="#6C86A2" stroke-width="2" stroke-linecap="round" stroke-linejoin="round" fill="#A0BAD9" opacity=".8" x="21" y="421" width="27" height="5" rx="2.5"/><g transform="translate(26 418)" fill="#D6E1EB" opacity=".8"><ellipse cx="4.5" cy=".5" rx=".5" ry=".5"/><ellipse cx="3.5" cy="4.5" rx=".5" ry=".5"/><ellipse cx="1" cy="2" rx="1" ry="1"/><ellipse cx="16" cy="5" rx="1" ry="1"/><ellipse cx="6" cy="5" rx="1" ry="1"/><ellipse cx="11" cy="2" rx="1" ry="1"/><ellipse cx="19" cy="4" rx="1" ry="1"/><ellipse cx="7.5" cy="2.5" rx=".5" ry=".5"/><ellipse cx="19.5" cy="1.5" rx=".5" ry=".5"/><ellipse cx="14.5" cy=".5" rx=".5" ry=".5"/><ellipse cx="13.5" cy="3.5" rx=".5" ry=".5"/></g><g opacity=".8" transform="translate(26 416)" fill="#B5CEE4"><ellipse transform="rotate(-75 5.5 4.5)" cx="5.5" cy="4.5" rx=".5" ry=".5"/><ellipse transform="rotate(-75 2 5)" cx="2" cy="5" rx="1" ry="1"/><ellipse transform="rotate(-75 10 5)" cx="10" cy="5" rx="1" ry="1"/><ellipse transform="rotate(-75 20 4)" cx="20" cy="4" rx="1" ry="1"/><ellipse transform="rotate(-75 8.5 2.5)" cx="8.5" cy="2.5" rx=".5" ry=".5"/><ellipse transform="rotate(-75 17.5 1.5)" cx="17.5" cy="1.5" rx=".5" ry=".5"/><circle transform="rotate(-75 14.5 4.5)" cx="14.5" cy="4.5" r=".5"/></g><g stroke="#ADAFAB" stroke-width="2" fill="#CBD0C6" stroke-linecap="round" stroke-linejoin="round"><path d="M47.5 57.076c1.933 0 3.5.357 3.5-1.576a3.5 3.5 0 0 0-7 0c0 1.933 1.567 1.576 3.5 1.576z"/><path d="M51.128 57.086c1.175 0 2.128.217 2.128-.958a2.128 2.128 0 0 0-4.256 0c0 1.175.953.958 2.128.958zm-27.256-.021c2.69 0 4.872.498 4.872-2.193a4.872 4.872 0 1 0-9.744 0c0 2.69 2.181 2.193 4.872 2.193z"/><path d="M28.128 57.086c1.175 0 2.128.217 2.128-.958a2.128 2.128 0 0 0-4.256 0c0 1.175.953.958 2.128.958zm-10.314-.006c1.554 0 2.814.288 2.814-1.266a2.814 2.814 0 0 0-5.628 0c0 1.554 1.26 1.267 2.814 1.267z"/></g></g><g stroke-linecap="round" stroke-linejoin="round"><path d="M185.621 121.62c-3.004 4.09-5.823 7.38-7.121 7.38-3.433 0-17.5-23-17.5-23h53s-14.067 35-17.5 35c-1.84 0-6.733-10.05-10.879-19.38z" stroke="#A39180" stroke-width="2" fill="#C3A68B"/><path d="M166.752 114.97C163.555 110.178 161 106 161 106h53s-1.04 2.586-2.622 6.352c-.969.28-1.994.43-3.072.43-1.801 0-3.476-.427-5.007-1.194l.672-1.341.99 1.127c-3.49 3.063-8.594 4.845-14.393 4.845-3.481 0-6.713-1.02-9.67-2.862l1.527.035c-2.786 1.564-5.871 2.444-9.23 2.444-2.314 0-4.481-.303-6.443-.865z" stroke="#A39180" fill="#A39180" opacity=".598"/><path d="M216.521 104.882c.3-.405.479-.907.479-1.45a2.421 2.421 0 0 0-2.423-2.432h-54.154a2.429 2.429 0 0 0-2.423 2.431c0 .68.274 1.291.717 1.73.426.793 1.267 2.147 2.524 3.254 2.476 2.178 6.541 3.921 11.953 3.921 3.39 0 6.235-.983 8.497-2.252 2.458 1.53 5.427 2.635 8.877 2.635 5.744 0 10.394-1.831 13.403-4.472a9.591 9.591 0 0 0 4.335 1.034c5.372 0 8.306-4.4 8.306-4.4h-.09z" stroke="#84AA58" stroke-width="2" fill="#B8E986"/><path d="M215.2 97.323l-2.165 2.839.775-4.867m-2.447 3.954L210 98m-30.561.03l-2.696 1.989-1.753-3.098" stroke="#84AA58" stroke-width="2"/><path d="M197 132.271L202.948 120M197 137.271l4.5-8.771m-17-10l-1-2m2.5 2.375l.5-1.375m-8.1 8.3l-2.9-3.3" stroke="#A39180"/><g stroke-width="2"><path stroke="#7F7368" fill="#9C8A7B" d="M201.476 93.632h3.238V101h-3.238z"/><path d="M206.482 84.79h3.09L203.5 73l-6.071 11.79h3.089l-5.113 8.842h16.19l-5.113-8.843z" stroke="#6F7C60" fill="#88947B"/><path stroke="#7F7368" fill="#9C8A7B" d="M189.619 92.316h3.81V101h-3.81z"/><path d="M195.509 81.895h3.634L192 68l-7.143 13.895h3.634l-6.015 10.42h19.048l-6.015-10.42z" stroke="#6F7C60" fill="#88947B"/><path stroke="#7F7368" fill="#9C8A7B" d="M183.714 94.421h2.857V101h-2.857z"/><path d="M188.132 86.526h2.725L185.5 76l-5.357 10.526h2.725l-4.51 7.895h14.285l-4.511-7.895z" stroke="#6F7C60" fill="#88947B"/><path stroke="#7F7368" fill="#9C8A7B" d="M162.476 93.632h3.238V101h-3.238z"/><path d="M167.482 84.79h3.09L164.5 73l-6.071 11.79h3.089l-5.113 8.842h16.19l-5.113-8.843z" stroke="#6F7C60" fill="#88947B"/></g></g><g stroke-linecap="round" stroke-linejoin="round"><g stroke="#A39180"><path d="M250.5 105c4.022 0 20.5-21 20.5-21h-41s16.478 21 20.5 21z" stroke-width="2" fill="#C3A68B"/><path d="M290.5 110c5.003 0 25.5-26 25.5-26h-51s20.497 26 25.5 26z" stroke-width="2" fill="#C3A68B"/><path d="M271.5 114c5.003 0 25.5-30 25.5-30h-51s20.497 30 25.5 30z" stroke-width="2" fill="#C3A68B"/><g fill="#A39180" opacity=".598"><path d="M257.434 99.728a66.031 66.031 0 0 1-1.955 1.917 364.42 364.42 0 0 1-7.42-10.088 394.58 394.58 0 0 1-2.497-3.551 20.081 20.081 0 0 0 2.772-.656c2.148 3.046 5.533 7.758 9.1 12.378zm26.833 6.08a78.946 78.946 0 0 1-1.987-1.927c4.365-5.364 8.937-11.662 11.805-15.709.993.09 2.032.15 3.117.173a397.59 397.59 0 0 1-2.26 3.212 361.942 361.942 0 0 1-7.625 10.356 237.36 237.36 0 0 1-3.05 3.896z"/><path d="M261.001 87.825l.408.64a206.075 206.075 0 0 0 3.9 5.887c.426.617.843 1.212 1.248 1.78 3.56 4.987 5.675 7.368 7.443 7.368 2.084 0 4.999-3.628 9.886-10.904h-2.49c5.721 8.512 9.265 12.904 11.604 12.904 1.996 0 4.616-2.96 8.88-8.955.498-.701 1.01-1.434 1.533-2.195a250.824 250.824 0 0 0 4.494-6.794 46.043 46.043 0 0 1-3.402.483C300.478 94.142 294.92 102 293 102c-1.744 0-6.487-6.48-10.36-12.24-3.185 4.742-7.19 10.24-8.64 10.24-1.562 0-6.085-6.374-9.357-11.316a15.87 15.87 0 0 1-2.025-.962 27.99 27.99 0 0 1-1.617.103z"/></g><path d="M278.247 83c-.78-1.236-1.247-2-1.247-2h32s-12.86 21-16 21c-1.744 0-6.487-6.48-10.36-12.24-3.185 4.742-7.19 10.24-8.64 10.24-2.55 0-13-17-13-17h17.247z" stroke-width="2" fill="#C3A68B"/><path d="M249.4 100.8l-4.9-5.3m29 1l-1-3m21 5l4-5m-34 9l-8-11m17 19l7-8m11 5l1-1m-23-2l-2-3"/></g><path d="M235.598 90.849a290.15 290.15 0 0 1-5.044-6.15l.048.019c1.738 1.276 5.67 3.563 11.513 3.563 3.311 0 6.008-.734 8.04-1.603 2.77.728 6.094 1.165 9.845 1.165.903 0 1.776-.043 2.618-.121C265.078 89.117 268.272 90 272 90c4.575 0 8.17-2.223 10.693-4.574 3.207 1.357 8.448 2.93 15.514 2.93 7.02 0 12.294-1.08 15.506-2.431.448-.189.855-.389 1.221-.59a362.433 362.433 0 0 1-4.218 5.148c-3.434.875-7.712 1.373-12.509 1.373-6.269 0-11.655-1.169-16.098-3.048l1.607-.284C280.374 91.637 276.458 93.5 272 93.5c-3.823 0-7.305-.875-10.122-2.474l.74-1.304.14 1.493c-.906.085-1.825.128-2.758.128-3.742 0-7.213-.422-10.226-1.215l.971-.071c-2.564 1.096-5.448 1.724-8.63 1.724-2.386 0-4.56-.34-6.517-.932z" stroke="#A39180" fill="#A39180" opacity=".598"/><path d="M230.602 84.718A2.436 2.436 0 0 1 229 82.43a2.423 2.423 0 0 1 2.427-2.43h84.146A2.433 2.433 0 0 1 318 82.431a2.423 2.423 0 0 1-2.267 2.426c-.542.353-1.215.73-2.02 1.068-3.212 1.35-8.485 2.43-15.506 2.43-7.066 0-12.307-1.572-15.514-2.929C280.171 87.776 276.575 90 272 90c-3.728 0-6.922-.883-9.382-2.278-.842.078-1.715.12-2.618.12-3.75 0-7.074-.436-9.845-1.164-2.032.869-4.729 1.603-8.04 1.603-5.844 0-9.775-2.287-11.513-3.563z" stroke="#84AA58" stroke-width="2" fill="#B8E986"/><path d="M234.8 76.323l2.626 2.671-.37-5.015m1.581 4.27L240 77" stroke="#84AA58" stroke-width="2"/><g transform="translate(272 1)"><rect stroke="#ADAFAB" stroke-width="2" fill="#CBD0C6" x="8" y="18" width="22" height="61" rx="8"/><rect stroke="#ADAFAB" stroke-width="2" fill="#CBD0C6" y="75" width="38" height="4" rx="2"/><rect stroke="#ADAFAB" stroke-width="2" fill="#CBD0C6" x="4.471" y="71" width="30.176" height="4" rx="2"/><path d="M16.035 62.273H16V71h7v-8.727h-.035C22.722 60.423 21.263 59 19.5 59s-3.222 1.422-3.465 3.273z" stroke="#B99595" stroke-width="2" fill="#D8AEAE"/><path d="M30 34.5v-8.494A8.008 8.008 0 0 0 21.995 18h-5.99A8.005 8.005 0 0 0 8 26.006V34.5h22z" stroke="#ADB1A8" fill="#ADB1A8" opacity=".598"/><path stroke="#B99595" stroke-width="2" fill="#D8AEAE" d="M19 0l19 31H0z"/><g stroke="#9FB5B0"><path stroke-width="2" fill="#B8CEC9" d="M16 39h7v7h-7z"/><path d="M19.5 45.611V39.39m-3.111 3.11h6.222"/></g><path d="M14.986 46.5h9.026" stroke="#9FB5B0" stroke-width="2" fill="#B8CEC9"/><path d="M4.5 25.5h30" stroke="#B99595" fill="#D8AEAE"/><path d="M3.5 27h31M6 22h26M9 17h20m-17-5h14M15 7h8" stroke="#B99595" stroke-width="2" fill="#D8AEAE" opacity=".6"/><path d="M6.5 20.5h25m-22-5h19m-16-5h13m-10-5h7" stroke="#B99595" fill="#D8AEAE"/></g><g stroke-width="2"><path stroke="#7F7368" fill="#9C8A7B" d="M268.524 67.895h4.762V80h-4.762z"/><path d="M275.886 53.368h4.543L271.5 34l-8.929 19.368h4.543l-7.519 14.527h23.81l-7.519-14.527z" stroke="#6F7C60" fill="#88947B"/><path stroke="#7F7368" fill="#9C8A7B" d="M252.619 70.263h3.81V80h-3.81z"/><path d="M258.509 58.579h3.634L255 43l-7.143 15.579h3.634l-6.015 11.684h19.048l-6.015-11.684z" stroke="#6F7C60" fill="#88947B"/></g></g><g stroke-linecap="round" stroke-linejoin="round"><g stroke="#A39180"><path d="M82 500.424c5.69 0 29-40.424 29-40.424H53s23.31 40.424 29 40.424z" stroke-width="2" fill="#C3A68B"/><path d="M60 503c6.474 0 33-46 33-46H27s26.526 46 33 46zm59-22c6.474 0 33-40 33-40H86s26.526 40 33 40z" stroke-width="2" fill="#C3A68B"/><g fill="#A39180" opacity=".598"><path d="M84.13 476.614a480.85 480.85 0 0 1-3.943 6.2 362.059 362.059 0 0 1-3.147 4.785 287.158 287.158 0 0 1-3.283 4.804c-.3-.398-1.074-1.386-1.709-2.192 3.422-4.826 7.051-10.406 10.31-15.597.594.678 1.185 1.345 1.771 2z"/><path d="M93.403 488.026c-.293.42-.585.836-.875 1.245a1.524 1.524 0 0 1-.126-.1c-5.834-5.115-14.017-14.497-23.47-26.429l2.43-.106c-4.789 7.27-7.704 10.864-9.862 10.864-2.235 0-5.354-3.927-10.471-11.796l2.497.027c-5.129 7.52-9.551 13.428-12.867 16.953a1.511 1.511 0 0 1-.283.236 450.11 450.11 0 0 1-.754-1.177l.236-.233-1.06-1.062c3.724-3.714 8.943-10.897 13.489-17.562C55.94 464.505 59.917 470 61.5 470c1.495 0 5.13-4.908 8.609-10.19 7.732 9.761 17.515 21.443 24.151 26.978l-.96 1.152.103.086zm21.347-9.582a19.86 19.86 0 0 0 1.904 1.543 262.065 262.065 0 0 0 4.589-5.25 367.97 367.97 0 0 0 4.005-4.783c4.156-5.047 8.413-10.452 12.54-15.856a606.003 606.003 0 0 0 5.037-6.69l.384-.52c.727-.991.02-2.388-1.209-2.388h-.369c-2.383 3.22-15.857 21.3-27.174 33.677l.293.267z"/></g><path d="M60 444h82s-33.76 46-42 46c-4.992 0-19.348-16.88-29.891-30.19C66.63 465.093 62.995 470 61.5 470c-1.582 0-5.56-5.495-9.213-11.114C45.788 468.414 37.913 479 35 479c-5.297 0-27-35-27-35h52z" stroke-width="2" fill="#C3A68B"/><path d="M145.28 450.805a491.706 491.706 0 0 1-4.16 5.842 31.71 31.71 0 0 1-7.62.917c-6.17 0-11.667-1.698-16.44-4.588l.776-1.283 1.071 1.05a17.08 17.08 0 0 1-2.314 1.98c-7.662 5.438-20.94 8.777-36.485 8.777-11.486 0-21.672-2.932-30.479-7.899l1.571-.06c-4.61 3.087-9.858 4.877-15.7 4.877-7.922 0-14.668-2.386-19.155-6.333a16.57 16.57 0 0 1-1.317-1.3l1.11-1.008-.222 1.483a19.59 19.59 0 0 1-2.287-.481 488.003 488.003 0 0 1-4.005-6.199 1.452 1.452 0 0 1 1.562-.03c1.45.843 3.2 1.447 5.175 1.743a1.5 1.5 0 0 1 .888.475c.346.381.705.737 1.078 1.065 3.921 3.45 9.96 5.585 17.173 5.585 5.208 0 9.888-1.596 14.031-4.37a1.5 1.5 0 0 1 1.572-.06c8.376 4.724 18.062 7.512 29.005 7.512 14.972 0 27.656-3.19 34.75-8.223.68-.483 1.315-1.03 1.907-1.634a1.5 1.5 0 0 1 1.848-.234c4.327 2.62 9.295 4.155 14.887 4.155 3.706 0 7.163-.68 10.372-1.928a1.457 1.457 0 0 1 1.408.17z" fill="#A39180" opacity=".598"/><path d="M60.5 498.5l14-19m6-14l9 10m26-16l-13 25m21-27l-8 11m19-7l-7 9m-64 14l4-5m-10-4l-5-6m9-2l1-5m-28 6l-2-3m2 10l-10-13m61 33l4-6m-7 8l2-4"/></g><path d="M155.765 444a6.237 6.237 0 0 0 1.235-3.737 6.27 6.27 0 0 0-6.266-6.263H11.266a6.262 6.262 0 0 0-4.056 11.036 9.6 9.6 0 0 0 1.337 1.464c1.712 1.507 4.276 2.78 7.591 3.277.367.404.766.802 1.198 1.182 3.763 3.31 9.94 5.96 18.164 5.96 6.181 0 11.17-2.15 14.866-4.625 7.039 3.97 17.038 7.706 29.742 7.706 16.166 0 28.738-3.618 35.617-8.5a15.58 15.58 0 0 0 2.111-1.807c3.762 2.277 9.026 4.371 15.664 4.371C148.053 454.064 156 444 156 444h-.235z" stroke="#84AA58" stroke-width="2" fill="#B8E986"/><g stroke-width="2"><g transform="translate(1 370)"><path stroke="#A18873" fill="#C0A791" d="M21.172 45.672h4.745V64h-4.745z"/><ellipse stroke="#859B6C" fill="#ABCC85" cx="23.5" cy="23.529" rx="23.5" ry="23.529"/></g><g transform="translate(51 377)"><path stroke="#A18873" fill="#C0A791" d="M18.92 40.676h4.24V57h-4.24z"/><ellipse stroke="#859B6C" fill="#ABCC85" cx="21" cy="20.956" rx="21" ry="20.956"/></g><g transform="translate(122 370)"><path stroke="#A18873" fill="#C0A791" d="M21.172 45.672h4.745V64h-4.745z"/><ellipse stroke="#859B6C" fill="#ABCC85" cx="23.5" cy="23.529" rx="23.5" ry="23.529"/></g><g transform="translate(117 390)"><path stroke="#A18873" fill="#C0A791" d="M13.592 31.399h4.876V44h-4.876z"/><ellipse stroke="#859B6C" fill="#ABCC85" cx="16" cy="16.176" rx="16" ry="16.176"/></g><g transform="translate(32 400)"><path stroke="#A18873" fill="#C0A791" d="M10.619 24.263h3.81V34h-3.81z"/><ellipse stroke="#859B6C" fill="#ABCC85" cx="12.5" cy="12.5" rx="12.5" ry="12.5"/></g></g><g stroke="#ADAFAB" stroke-width="2" fill="#CBD0C6"><path d="M69.302 430.302c0-4.585 4.633-8.302 10.349-8.302S90 425.717 90 430.302c0 4.586-4.633 3.738-10.349 3.738s-10.35.848-10.35-3.738z"/><path d="M90.5 434.068c-2.485 0-4.5.46-4.5-2.026a4.5 4.5 0 1 1 9 0c0 2.486-2.015 2.026-4.5 2.026z"/><path d="M97.695 431c-1.92 0-3.478.953-3.478 2.128 0 1.175 1.557.958 3.478.958 1.357 0 2.532.108 3.106-.242.804.362 2.27.237 3.947.237 2.54 0 4.6.287 4.6-1.267 0-1.554-2.06-2.814-4.6-2.814-1.97 0-3.65.757-4.306 1.822-.637-.5-1.63-.822-2.747-.822zm-18.683 1.5c0-1.933 2.236-3.5 4.994-3.5 2.758 0 4.994 1.567 4.994 3.5s-2.236 1.576-4.994 1.576c-2.758 0-4.994.357-4.994-1.576zm33.317-1.543c0-3.796 3.956-6.872 8.835-6.872 4.88 0 8.836 3.076 8.836 6.872 0 3.795-3.956 3.094-8.836 3.094-4.88 0-8.835.701-8.835-3.094z"/><path d="M112.872 434.08c-1.554 0-2.814.288-2.814-1.266a2.814 2.814 0 1 1 5.628 0c0 1.554-1.26 1.267-2.814 1.267zm3.013-1.58c0-1.933 2.02-3.5 4.512-3.5 2.493 0 4.513 1.567 4.513 3.5s-2.02 1.576-4.513 1.576c-2.492 0-4.512.357-4.512-1.576zm14.987 1.586c-1.175 0-2.128.217-2.128-.958a2.128 2.128 0 0 1 4.256 0c0 1.175-.953.958-2.128.958zm-53.988 0c-1.175 0-2.128.217-2.128-.958a2.128 2.128 0 0 1 4.256 0c0 1.175-.953.958-2.128.958z"/></g><path d="M62.545 431.07l-.589 2.81-2.854-2.11m79.193.482l1.891 1.395 1.23-2.173m-102.551.614l-2.36 1.957.003-3.996m-.81 3.093L33 432" stroke="#84AA58" stroke-width="2"/></g></g></svg>